<?xml version="1.0" encoding="UTF-8"?><svg xmlns="http://www.w3.org/2000/svg" xmlns:xlink="http://www.w3.org/1999/xlink" stroke-dasharray="none" shape-rendering="auto" font-family="'Dialog'" width="1553" text-rendering="auto" fill-opacity="1" contentScriptType="text/ecmascript" color-interpolation="auto" color-rendering="auto" preserveAspectRatio="xMidYMid meet" font-size="12" fill="black" stroke="black" image-rendering="auto" stroke-miterlimit="10" zoomAndPan="magnify" version="1.0" stroke-linecap="square" stroke-linejoin="miter" contentStyleType="text/css" font-style="normal" height="572" stroke-width="1" stroke-dashoffset="0" font-weight="normal" stroke-opacity="1">
<!--Generated by the Batik Graphics2D SVG Generator-->
<defs id="genericDefs"/>
<g>
<defs id="defs1">
<clipPath clipPathUnits="userSpaceOnUse" id="clipPath1">
<path d="M28 73 L1525 73 L1525 549 L28 549 L28 73 Z"/>
</clipPath>
<clipPath clipPathUnits="userSpaceOnUse" id="clipPath2">
<path d="M-1 -1 L1554 -1 L1554 573 L-1 573 L-1 -1 Z"/>
</clipPath>
<clipPath clipPathUnits="userSpaceOnUse" id="clipPath3">
<path d="M555 20 L998 20 L998 47 L555 47 L555 20 Z"/>
</clipPath>
</defs>
<g fill="white" text-rendering="geometricPrecision" font-family="'Microsoft YaHei UI'" stroke-linejoin="round" stroke="white" stroke-width="0" stroke-miterlimit="0">
<rect x="29" y="74" clip-path="url(#clipPath1)" width="1495" height="474" stroke="none"/>
</g>
<g stroke-linecap="butt" fill="rgb(204,204,204)" text-rendering="geometricPrecision" font-family="'Microsoft YaHei UI'" stroke-dasharray="3,3" stroke="rgb(204,204,204)">
<line clip-path="url(#clipPath1)" fill="none" x1="29" x2="29" y1="74" y2="548"/>
<line clip-path="url(#clipPath1)" fill="none" x1="96" x2="96" y1="74" y2="548"/>
<line clip-path="url(#clipPath1)" fill="none" x1="163" x2="163" y1="74" y2="548"/>
<line clip-path="url(#clipPath1)" fill="none" x1="230" x2="230" y1="74" y2="548"/>
<line clip-path="url(#clipPath1)" fill="none" x1="297" x2="297" y1="74" y2="548"/>
<line clip-path="url(#clipPath1)" fill="none" x1="364" x2="364" y1="74" y2="548"/>
<line clip-path="url(#clipPath1)" fill="none" x1="431" x2="431" y1="74" y2="548"/>
<line clip-path="url(#clipPath1)" fill="none" x1="498" x2="498" y1="74" y2="548"/>
<line clip-path="url(#clipPath1)" fill="none" x1="565" x2="565" y1="74" y2="548"/>
<line clip-path="url(#clipPath1)" fill="none" x1="633" x2="633" y1="74" y2="548"/>
<line clip-path="url(#clipPath1)" fill="none" x1="700" x2="700" y1="74" y2="548"/>
<line clip-path="url(#clipPath1)" fill="none" x1="767" x2="767" y1="74" y2="548"/>
<line clip-path="url(#clipPath1)" fill="none" x1="834" x2="834" y1="74" y2="548"/>
<line clip-path="url(#clipPath1)" fill="none" x1="901" x2="901" y1="74" y2="548"/>
<line clip-path="url(#clipPath1)" fill="none" x1="968" x2="968" y1="74" y2="548"/>
<line clip-path="url(#clipPath1)" fill="none" x1="1035" x2="1035" y1="74" y2="548"/>
<line clip-path="url(#clipPath1)" fill="none" x1="1102" x2="1102" y1="74" y2="548"/>
<line clip-path="url(#clipPath1)" fill="none" x1="1169" x2="1169" y1="74" y2="548"/>
<line clip-path="url(#clipPath1)" fill="none" x1="1237" x2="1237" y1="74" y2="548"/>
<line clip-path="url(#clipPath1)" fill="none" x1="1304" x2="1304" y1="74" y2="548"/>
<line clip-path="url(#clipPath1)" fill="none" x1="1371" x2="1371" y1="74" y2="548"/>
<line clip-path="url(#clipPath1)" fill="none" x1="1438" x2="1438" y1="74" y2="548"/>
<line clip-path="url(#clipPath1)" fill="none" x1="1505" x2="1505" y1="74" y2="548"/>
<line clip-path="url(#clipPath1)" fill="none" x1="29" x2="1524" y1="548" y2="548"/>
<line clip-path="url(#clipPath1)" fill="none" x1="29" x2="1524" y1="488" y2="488"/>
<line clip-path="url(#clipPath1)" fill="none" x1="29" x2="1524" y1="429" y2="429"/>
<line clip-path="url(#clipPath1)" fill="none" x1="29" x2="1524" y1="370" y2="370"/>
<line clip-path="url(#clipPath1)" fill="none" x1="29" x2="1524" y1="311" y2="311"/>
<line clip-path="url(#clipPath1)" fill="none" x1="29" x2="1524" y1="251" y2="251"/>
<line clip-path="url(#clipPath1)" fill="none" x1="29" x2="1524" y1="192" y2="192"/>
<line clip-path="url(#clipPath1)" fill="none" x1="29" x2="1524" y1="133" y2="133"/>
<rect x="157" y="542" clip-path="url(#clipPath1)" fill="rgb(0,0,139)" width="13" height="13" stroke="none"/>
<line clip-path="url(#clipPath1)" fill="none" x1="163" x2="297" y1="548" y2="429" stroke-dasharray="none" stroke="rgb(0,0,139)"/>
<rect x="291" y="423" clip-path="url(#clipPath1)" fill="rgb(0,0,139)" width="13" stroke-dasharray="none" height="13" stroke="none"/>
<line clip-path="url(#clipPath1)" fill="none" x1="297" x2="431" y1="429" y2="548" stroke-dasharray="none" stroke="rgb(0,0,139)"/>
<rect x="425" y="542" clip-path="url(#clipPath1)" fill="rgb(0,0,139)" width="13" stroke-dasharray="none" height="13" stroke="none"/>
<line clip-path="url(#clipPath1)" fill="none" x1="431" x2="565" y1="548" y2="548" stroke-dasharray="none" stroke="rgb(0,0,139)"/>
<rect x="559" y="542" clip-path="url(#clipPath1)" fill="rgb(0,0,139)" width="13" stroke-dasharray="none" height="13" stroke="none"/>
<line clip-path="url(#clipPath1)" fill="none" x1="565" x2="700" y1="548" y2="311" stroke-dasharray="none" stroke="rgb(0,0,139)"/>
<rect x="694" y="305" clip-path="url(#clipPath1)" fill="rgb(0,0,139)" width="13" stroke-dasharray="none" height="13" stroke="none"/>
<line clip-path="url(#clipPath1)" fill="none" x1="700" x2="834" y1="311" y2="429" stroke-dasharray="none" stroke="rgb(0,0,139)"/>
<rect x="828" y="423" clip-path="url(#clipPath1)" fill="rgb(0,0,139)" width="13" stroke-dasharray="none" height="13" stroke="none"/>
<line clip-path="url(#clipPath1)" fill="none" x1="834" x2="968" y1="429" y2="429" stroke-dasharray="none" stroke="rgb(0,0,139)"/>
<rect x="962" y="423" clip-path="url(#clipPath1)" fill="rgb(0,0,139)" width="13" stroke-dasharray="none" height="13" stroke="none"/>
<line clip-path="url(#clipPath1)" fill="none" x1="968" x2="1102" y1="429" y2="311" stroke-dasharray="none" stroke="rgb(0,0,139)"/>
<rect x="1096" y="305" clip-path="url(#clipPath1)" fill="rgb(0,0,139)" width="13" stroke-dasharray="none" height="13" stroke="none"/>
<line clip-path="url(#clipPath1)" fill="none" x1="1102" x2="1237" y1="311" y2="548" stroke-dasharray="none" stroke="rgb(0,0,139)"/>
<rect x="1231" y="542" clip-path="url(#clipPath1)" fill="rgb(0,0,139)" width="13" stroke-dasharray="none" height="13" stroke="none"/>
<line clip-path="url(#clipPath1)" fill="none" x1="1237" x2="1371" y1="548" y2="548" stroke-dasharray="none" stroke="rgb(0,0,139)"/>
<rect x="1365" y="542" clip-path="url(#clipPath1)" fill="rgb(0,0,139)" width="13" stroke-dasharray="none" height="13" stroke="none"/>
<line clip-path="url(#clipPath1)" fill="none" x1="1371" x2="1505" y1="548" y2="548" stroke-dasharray="none" stroke="rgb(0,0,139)"/>
<rect x="1499" y="542" clip-path="url(#clipPath1)" fill="rgb(0,0,139)" width="13" stroke-dasharray="none" height="13" stroke="none"/>
<circle clip-path="url(#clipPath1)" fill="rgb(238,0,0)" r="7" stroke-dasharray="none" cx="163" cy="548" stroke="none"/>
<line clip-path="url(#clipPath1)" fill="none" x1="163" x2="297" y1="548" y2="429" stroke-dasharray="none" stroke="rgb(238,0,0)"/>
<circle clip-path="url(#clipPath1)" fill="rgb(238,0,0)" r="7" stroke-dasharray="none" cx="297" cy="429" stroke="none"/>
<line clip-path="url(#clipPath1)" fill="none" x1="297" x2="431" y1="429" y2="548" stroke-dasharray="none" stroke="rgb(238,0,0)"/>
<circle clip-path="url(#clipPath1)" fill="rgb(238,0,0)" r="7" stroke-dasharray="none" cx="431" cy="548" stroke="none"/>
<line clip-path="url(#clipPath1)" fill="none" x1="431" x2="565" y1="548" y2="429" stroke-dasharray="none" stroke="rgb(238,0,0)"/>
<circle clip-path="url(#clipPath1)" fill="rgb(238,0,0)" r="7" stroke-dasharray="none" cx="565" cy="429" stroke="none"/>
<line clip-path="url(#clipPath1)" fill="none" x1="565" x2="700" y1="429" y2="429" stroke-dasharray="none" stroke="rgb(238,0,0)"/>
<circle clip-path="url(#clipPath1)" fill="rgb(238,0,0)" r="7" stroke-dasharray="none" cx="700" cy="429" stroke="none"/>
<line clip-path="url(#clipPath1)" fill="none" x1="700" x2="834" y1="429" y2="548" stroke-dasharray="none" stroke="rgb(238,0,0)"/>
<circle clip-path="url(#clipPath1)" fill="rgb(238,0,0)" r="7" stroke-dasharray="none" cx="834" cy="548" stroke="none"/>
<polygon fill="rgb(0,100,0)" stroke-dasharray="none" clip-path="url(#clipPath1)" points=" 163 538 172 554 154 554 163 538" stroke="none"/>
<line clip-path="url(#clipPath1)" fill="none" x1="163" x2="297" y1="548" y2="548" stroke-dasharray="none" stroke="rgb(0,100,0)"/>
<polygon fill="rgb(0,100,0)" stroke-dasharray="none" clip-path="url(#clipPath1)" points=" 297 538 306 554 288 554 297 538" stroke="none"/>
<line clip-path="url(#clipPath1)" fill="none" x1="297" x2="431" y1="548" y2="548" stroke-dasharray="none" stroke="rgb(0,100,0)"/>
<polygon fill="rgb(0,100,0)" stroke-dasharray="none" clip-path="url(#clipPath1)" points=" 431 538 440 554 422 554 431 538" stroke="none"/>
<line clip-path="url(#clipPath1)" fill="none" x1="431" x2="565" y1="548" y2="429" stroke-dasharray="none" stroke="rgb(0,100,0)"/>
<polygon fill="rgb(0,100,0)" stroke-dasharray="none" clip-path="url(#clipPath1)" points=" 565 419 574 435 556 435 565 419" stroke="none"/>
<line clip-path="url(#clipPath1)" fill="none" x1="565" x2="700" y1="429" y2="548" stroke-dasharray="none" stroke="rgb(0,100,0)"/>
<polygon fill="rgb(0,100,0)" stroke-dasharray="none" clip-path="url(#clipPath1)" points=" 700 538 709 554 691 554 700 538" stroke="none"/>
<line clip-path="url(#clipPath1)" fill="none" x1="700" x2="834" y1="548" y2="429" stroke-dasharray="none" stroke="rgb(0,100,0)"/>
<polygon fill="rgb(0,100,0)" stroke-dasharray="none" clip-path="url(#clipPath1)" points=" 834 419 843 435 825 435 834 419" stroke="none"/>
<polygon fill="rgb(255,165,0)" stroke-dasharray="none" clip-path="url(#clipPath1)" points=" 154 548 163 539 172 548 163 557 154 548" stroke="none"/>
<line clip-path="url(#clipPath1)" fill="none" x1="163" x2="297" y1="548" y2="429" stroke-dasharray="none" stroke="rgb(255,165,0)"/>
<polygon fill="rgb(255,165,0)" stroke-dasharray="none" clip-path="url(#clipPath1)" points=" 288 429 297 420 306 429 297 438 288 429" stroke="none"/>
<line clip-path="url(#clipPath1)" fill="none" x1="297" x2="431" y1="429" y2="311" stroke-dasharray="none" stroke="rgb(255,165,0)"/>
<polygon fill="rgb(255,165,0)" stroke-dasharray="none" clip-path="url(#clipPath1)" points=" 422 311 431 302 440 311 431 320 422 311" stroke="none"/>
<line clip-path="url(#clipPath1)" fill="none" x1="431" x2="565" y1="311" y2="192" stroke-dasharray="none" stroke="rgb(255,165,0)"/>
<polygon fill="rgb(255,165,0)" stroke-dasharray="none" clip-path="url(#clipPath1)" points=" 556 192 565 183 574 192 565 201 556 192" stroke="none"/>
<line clip-path="url(#clipPath1)" fill="none" x1="565" x2="700" y1="192" y2="548" stroke-dasharray="none" stroke="rgb(255,165,0)"/>
<polygon fill="rgb(255,165,0)" stroke-dasharray="none" clip-path="url(#clipPath1)" points=" 691 548 700 539 709 548 700 557 691 548" stroke="none"/>
<line clip-path="url(#clipPath1)" fill="none" x1="700" x2="834" y1="548" y2="311" stroke-dasharray="none" stroke="rgb(255,165,0)"/>
<polygon fill="rgb(255,165,0)" stroke-dasharray="none" clip-path="url(#clipPath1)" points=" 825 311 834 302 843 311 834 320 825 311" stroke="none"/>
<line clip-path="url(#clipPath1)" fill="none" x1="834" x2="968" y1="311" y2="429" stroke-dasharray="none" stroke="rgb(255,165,0)"/>
<polygon fill="rgb(255,165,0)" stroke-dasharray="none" clip-path="url(#clipPath1)" points=" 959 429 968 420 977 429 968 438 959 429" stroke="none"/>
<line clip-path="url(#clipPath1)" fill="none" x1="968" x2="1102" y1="429" y2="429" stroke-dasharray="none" stroke="rgb(255,165,0)"/>
<polygon fill="rgb(255,165,0)" stroke-dasharray="none" clip-path="url(#clipPath1)" points=" 1093 429 1102 420 1111 429 1102 438 1093 429" stroke="none"/>
<line clip-path="url(#clipPath1)" fill="none" x1="1102" x2="1237" y1="429" y2="429" stroke-dasharray="none" stroke="rgb(255,165,0)"/>
<polygon fill="rgb(255,165,0)" stroke-dasharray="none" clip-path="url(#clipPath1)" points=" 1228 429 1237 420 1246 429 1237 438 1228 429" stroke="none"/>
<line clip-path="url(#clipPath1)" fill="none" x1="1237" x2="1371" y1="429" y2="548" stroke-dasharray="none" stroke="rgb(255,165,0)"/>
<polygon fill="rgb(255,165,0)" stroke-dasharray="none" clip-path="url(#clipPath1)" points=" 1362 548 1371 539 1380 548 1371 557 1362 548" stroke="none"/>
<line clip-path="url(#clipPath1)" fill="none" x1="1371" x2="1505" y1="548" y2="548" stroke-dasharray="none" stroke="rgb(255,165,0)"/>
<polygon fill="rgb(255,165,0)" stroke-dasharray="none" clip-path="url(#clipPath1)" points=" 1496 548 1505 539 1514 548 1505 557 1496 548" stroke="none"/>
<rect x="29" y="74" clip-path="url(#clipPath2)" fill="none" width="1495" stroke-dasharray="none" height="474" stroke="black"/>
</g>
<g text-rendering="geometricPrecision" font-size="13" font-family="'Arial'" stroke-linecap="butt">
<text xml:space="preserve" x="741" y="12" clip-path="url(#clipPath2)" stroke="none">CountEchos</text>
<rect x="556" y="21" clip-path="url(#clipPath3)" fill="white" width="440" height="24" stroke="none"/>
<line clip-path="url(#clipPath3)" fill="none" x1="562" x2="576" y1="33" y2="33" stroke="rgb(0,0,139)"/>
<rect x="566" y="30" clip-path="url(#clipPath3)" fill="rgb(0,0,139)" width="7" height="7" stroke="none"/>
<text x="578" font-size="10" y="36" clip-path="url(#clipPath3)" stroke="none" xml:space="preserve">fcnetwork.node1</text>
<line clip-path="url(#clipPath3)" fill="none" x1="672" x2="686" y1="33" y2="33" stroke="rgb(238,0,0)"/>
<circle clip-path="url(#clipPath3)" fill="rgb(238,0,0)" r="3" cx="679" cy="33" stroke="none"/>
<text x="688" font-size="10" y="36" clip-path="url(#clipPath3)" stroke="none" xml:space="preserve">fcnetwork.node2</text>
<line clip-path="url(#clipPath3)" fill="none" x1="782" x2="796" y1="33" y2="33" stroke="rgb(0,100,0)"/>
<polygon fill="rgb(0,100,0)" clip-path="url(#clipPath3)" points=" 789 28 794 36 784 36 789 28" stroke="none"/>
<text x="798" font-size="10" y="36" clip-path="url(#clipPath3)" stroke="none" xml:space="preserve">fcnetwork.node3</text>
<line clip-path="url(#clipPath3)" fill="none" x1="892" x2="906" y1="33" y2="33" stroke="rgb(255,165,0)"/>
<polygon fill="rgb(255,165,0)" clip-path="url(#clipPath3)" points=" 895 33 899 29 903 33 899 37 895 33" stroke="none"/>
<text x="908" font-size="10" y="36" clip-path="url(#clipPath3)" stroke="none" xml:space="preserve">fcnetwork.node4</text>
<line clip-path="url(#clipPath2)" fill="none" x1="29" x2="1524" y1="72" y2="72"/>
<line clip-path="url(#clipPath2)" fill="none" x1="29" x2="1524" y1="550" y2="550"/>
<line clip-path="url(#clipPath2)" fill="none" x1="29" x2="29" y1="68" y2="72"/>
<line clip-path="url(#clipPath2)" fill="none" x1="29" x2="29" y1="554" y2="550"/>
<text x="28" font-size="10" y="63" clip-path="url(#clipPath2)" stroke="none" xml:space="preserve">0</text>
<text x="28" font-size="10" y="565" clip-path="url(#clipPath2)" stroke="none" xml:space="preserve">0</text>
<line clip-path="url(#clipPath2)" fill="none" x1="42" x2="42" y1="70" y2="72"/>
<line clip-path="url(#clipPath2)" fill="none" x1="42" x2="42" y1="552" y2="550"/>
<line clip-path="url(#clipPath2)" fill="none" x1="55" x2="55" y1="70" y2="72"/>
<line clip-path="url(#clipPath2)" fill="none" x1="55" x2="55" y1="552" y2="550"/>
<line clip-path="url(#clipPath2)" fill="none" x1="69" x2="69" y1="70" y2="72"/>
<line clip-path="url(#clipPath2)" fill="none" x1="69" x2="69" y1="552" y2="550"/>
<line clip-path="url(#clipPath2)" fill="none" x1="82" x2="82" y1="70" y2="72"/>
<line clip-path="url(#clipPath2)" fill="none" x1="82" x2="82" y1="552" y2="550"/>
<line clip-path="url(#clipPath2)" fill="none" x1="96" x2="96" y1="68" y2="72"/>
<line clip-path="url(#clipPath2)" fill="none" x1="96" x2="96" y1="554" y2="550"/>
<text x="90" font-size="10" y="63" clip-path="url(#clipPath2)" stroke="none" xml:space="preserve">0.5</text>
<text x="90" font-size="10" y="565" clip-path="url(#clipPath2)" stroke="none" xml:space="preserve">0.5</text>
<line clip-path="url(#clipPath2)" fill="none" x1="109" x2="109" y1="70" y2="72"/>
<line clip-path="url(#clipPath2)" fill="none" x1="109" x2="109" y1="552" y2="550"/>
<line clip-path="url(#clipPath2)" fill="none" x1="122" x2="122" y1="70" y2="72"/>
<line clip-path="url(#clipPath2)" fill="none" x1="122" x2="122" y1="552" y2="550"/>
<line clip-path="url(#clipPath2)" fill="none" x1="136" x2="136" y1="70" y2="72"/>
<line clip-path="url(#clipPath2)" fill="none" x1="136" x2="136" y1="552" y2="550"/>
<line clip-path="url(#clipPath2)" fill="none" x1="149" x2="149" y1="70" y2="72"/>
<line clip-path="url(#clipPath2)" fill="none" x1="149" x2="149" y1="552" y2="550"/>
<line clip-path="url(#clipPath2)" fill="none" x1="163" x2="163" y1="68" y2="72"/>
<line clip-path="url(#clipPath2)" fill="none" x1="163" x2="163" y1="554" y2="550"/>
<text x="157" font-size="10" y="63" clip-path="url(#clipPath2)" stroke="none" xml:space="preserve">1.0</text>
<text x="157" font-size="10" y="565" clip-path="url(#clipPath2)" stroke="none" xml:space="preserve">1.0</text>
<line clip-path="url(#clipPath2)" fill="none" x1="176" x2="176" y1="70" y2="72"/>
<line clip-path="url(#clipPath2)" fill="none" x1="176" x2="176" y1="552" y2="550"/>
<line clip-path="url(#clipPath2)" fill="none" x1="190" x2="190" y1="70" y2="72"/>
<line clip-path="url(#clipPath2)" fill="none" x1="190" x2="190" y1="552" y2="550"/>
<line clip-path="url(#clipPath2)" fill="none" x1="203" x2="203" y1="70" y2="72"/>
<line clip-path="url(#clipPath2)" fill="none" x1="203" x2="203" y1="552" y2="550"/>
<line clip-path="url(#clipPath2)" fill="none" x1="216" x2="216" y1="70" y2="72"/>
<line clip-path="url(#clipPath2)" fill="none" x1="216" x2="216" y1="552" y2="550"/>
<line clip-path="url(#clipPath2)" fill="none" x1="230" x2="230" y1="68" y2="72"/>
<line clip-path="url(#clipPath2)" fill="none" x1="230" x2="230" y1="554" y2="550"/>
<text x="224" font-size="10" y="63" clip-path="url(#clipPath2)" stroke="none" xml:space="preserve">1.5</text>
<text x="224" font-size="10" y="565" clip-path="url(#clipPath2)" stroke="none" xml:space="preserve">1.5</text>
<line clip-path="url(#clipPath2)" fill="none" x1="243" x2="243" y1="70" y2="72"/>
<line clip-path="url(#clipPath2)" fill="none" x1="243" x2="243" y1="552" y2="550"/>
<line clip-path="url(#clipPath2)" fill="none" x1="257" x2="257" y1="70" y2="72"/>
<line clip-path="url(#clipPath2)" fill="none" x1="257" x2="257" y1="552" y2="550"/>
<line clip-path="url(#clipPath2)" fill="none" x1="270" x2="270" y1="70" y2="72"/>
<line clip-path="url(#clipPath2)" fill="none" x1="270" x2="270" y1="552" y2="550"/>
<line clip-path="url(#clipPath2)" fill="none" x1="284" x2="284" y1="70" y2="72"/>
<line clip-path="url(#clipPath2)" fill="none" x1="284" x2="284" y1="552" y2="550"/>
<line clip-path="url(#clipPath2)" fill="none" x1="297" x2="297" y1="68" y2="72"/>
<line clip-path="url(#clipPath2)" fill="none" x1="297" x2="297" y1="554" y2="550"/>
<text x="291" font-size="10" y="63" clip-path="url(#clipPath2)" stroke="none" xml:space="preserve">2.0</text>
<text x="291" font-size="10" y="565" clip-path="url(#clipPath2)" stroke="none" xml:space="preserve">2.0</text>
<line clip-path="url(#clipPath2)" fill="none" x1="310" x2="310" y1="70" y2="72"/>
<line clip-path="url(#clipPath2)" fill="none" x1="310" x2="310" y1="552" y2="550"/>
<line clip-path="url(#clipPath2)" fill="none" x1="324" x2="324" y1="70" y2="72"/>
<line clip-path="url(#clipPath2)" fill="none" x1="324" x2="324" y1="552" y2="550"/>
<line clip-path="url(#clipPath2)" fill="none" x1="337" x2="337" y1="70" y2="72"/>
<line clip-path="url(#clipPath2)" fill="none" x1="337" x2="337" y1="552" y2="550"/>
<line clip-path="url(#clipPath2)" fill="none" x1="351" x2="351" y1="70" y2="72"/>
<line clip-path="url(#clipPath2)" fill="none" x1="351" x2="351" y1="552" y2="550"/>
<line clip-path="url(#clipPath2)" fill="none" x1="364" x2="364" y1="68" y2="72"/>
<line clip-path="url(#clipPath2)" fill="none" x1="364" x2="364" y1="554" y2="550"/>
<text x="358" font-size="10" y="63" clip-path="url(#clipPath2)" stroke="none" xml:space="preserve">2.5</text>
<text x="358" font-size="10" y="565" clip-path="url(#clipPath2)" stroke="none" xml:space="preserve">2.5</text>
<line clip-path="url(#clipPath2)" fill="none" x1="378" x2="378" y1="70" y2="72"/>
<line clip-path="url(#clipPath2)" fill="none" x1="378" x2="378" y1="552" y2="550"/>
<line clip-path="url(#clipPath2)" fill="none" x1="391" x2="391" y1="70" y2="72"/>
<line clip-path="url(#clipPath2)" fill="none" x1="391" x2="391" y1="552" y2="550"/>
<line clip-path="url(#clipPath2)" fill="none" x1="404" x2="404" y1="70" y2="72"/>
<line clip-path="url(#clipPath2)" fill="none" x1="404" x2="404" y1="552" y2="550"/>
<line clip-path="url(#clipPath2)" fill="none" x1="418" x2="418" y1="70" y2="72"/>
<line clip-path="url(#clipPath2)" fill="none" x1="418" x2="418" y1="552" y2="550"/>
<line clip-path="url(#clipPath2)" fill="none" x1="431" x2="431" y1="68" y2="72"/>
<line clip-path="url(#clipPath2)" fill="none" x1="431" x2="431" y1="554" y2="550"/>
<text x="425" font-size="10" y="63" clip-path="url(#clipPath2)" stroke="none" xml:space="preserve">3.0</text>
<text x="425" font-size="10" y="565" clip-path="url(#clipPath2)" stroke="none" xml:space="preserve">3.0</text>
<line clip-path="url(#clipPath2)" fill="none" x1="445" x2="445" y1="70" y2="72"/>
<line clip-path="url(#clipPath2)" fill="none" x1="445" x2="445" y1="552" y2="550"/>
<line clip-path="url(#clipPath2)" fill="none" x1="458" x2="458" y1="70" y2="72"/>
<line clip-path="url(#clipPath2)" fill="none" x1="458" x2="458" y1="552" y2="550"/>
<line clip-path="url(#clipPath2)" fill="none" x1="471" x2="471" y1="70" y2="72"/>
<line clip-path="url(#clipPath2)" fill="none" x1="471" x2="471" y1="552" y2="550"/>
<line clip-path="url(#clipPath2)" fill="none" x1="485" x2="485" y1="70" y2="72"/>
<line clip-path="url(#clipPath2)" fill="none" x1="485" x2="485" y1="552" y2="550"/>
<line clip-path="url(#clipPath2)" fill="none" x1="498" x2="498" y1="68" y2="72"/>
<line clip-path="url(#clipPath2)" fill="none" x1="498" x2="498" y1="554" y2="550"/>
<text x="492" font-size="10" y="63" clip-path="url(#clipPath2)" stroke="none" xml:space="preserve">3.5</text>
<text x="492" font-size="10" y="565" clip-path="url(#clipPath2)" stroke="none" xml:space="preserve">3.5</text>
<line clip-path="url(#clipPath2)" fill="none" x1="512" x2="512" y1="70" y2="72"/>
<line clip-path="url(#clipPath2)" fill="none" x1="512" x2="512" y1="552" y2="550"/>
<line clip-path="url(#clipPath2)" fill="none" x1="525" x2="525" y1="70" y2="72"/>
<line clip-path="url(#clipPath2)" fill="none" x1="525" x2="525" y1="552" y2="550"/>
<line clip-path="url(#clipPath2)" fill="none" x1="539" x2="539" y1="70" y2="72"/>
<line clip-path="url(#clipPath2)" fill="none" x1="539" x2="539" y1="552" y2="550"/>
<line clip-path="url(#clipPath2)" fill="none" x1="552" x2="552" y1="70" y2="72"/>
<line clip-path="url(#clipPath2)" fill="none" x1="552" x2="552" y1="552" y2="550"/>
<line clip-path="url(#clipPath2)" fill="none" x1="565" x2="565" y1="68" y2="72"/>
<line clip-path="url(#clipPath2)" fill="none" x1="565" x2="565" y1="554" y2="550"/>
<text x="559" font-size="10" y="63" clip-path="url(#clipPath2)" stroke="none" xml:space="preserve">4.0</text>
<text x="559" font-size="10" y="565" clip-path="url(#clipPath2)" stroke="none" xml:space="preserve">4.0</text>
<line clip-path="url(#clipPath2)" fill="none" x1="579" x2="579" y1="70" y2="72"/>
<line clip-path="url(#clipPath2)" fill="none" x1="579" x2="579" y1="552" y2="550"/>
<line clip-path="url(#clipPath2)" fill="none" x1="592" x2="592" y1="70" y2="72"/>
<line clip-path="url(#clipPath2)" fill="none" x1="592" x2="592" y1="552" y2="550"/>
<line clip-path="url(#clipPath2)" fill="none" x1="606" x2="606" y1="70" y2="72"/>
<line clip-path="url(#clipPath2)" fill="none" x1="606" x2="606" y1="552" y2="550"/>
<line clip-path="url(#clipPath2)" fill="none" x1="619" x2="619" y1="70" y2="72"/>
<line clip-path="url(#clipPath2)" fill="none" x1="619" x2="619" y1="552" y2="550"/>
<line clip-path="url(#clipPath2)" fill="none" x1="633" x2="633" y1="68" y2="72"/>
<line clip-path="url(#clipPath2)" fill="none" x1="633" x2="633" y1="554" y2="550"/>
<text x="627" font-size="10" y="63" clip-path="url(#clipPath2)" stroke="none" xml:space="preserve">4.5</text>
<text x="627" font-size="10" y="565" clip-path="url(#clipPath2)" stroke="none" xml:space="preserve">4.5</text>
<line clip-path="url(#clipPath2)" fill="none" x1="646" x2="646" y1="70" y2="72"/>
<line clip-path="url(#clipPath2)" fill="none" x1="646" x2="646" y1="552" y2="550"/>
<line clip-path="url(#clipPath2)" fill="none" x1="659" x2="659" y1="70" y2="72"/>
<line clip-path="url(#clipPath2)" fill="none" x1="659" x2="659" y1="552" y2="550"/>
<line clip-path="url(#clipPath2)" fill="none" x1="673" x2="673" y1="70" y2="72"/>
<line clip-path="url(#clipPath2)" fill="none" x1="673" x2="673" y1="552" y2="550"/>
<line clip-path="url(#clipPath2)" fill="none" x1="686" x2="686" y1="70" y2="72"/>
<line clip-path="url(#clipPath2)" fill="none" x1="686" x2="686" y1="552" y2="550"/>
<line clip-path="url(#clipPath2)" fill="none" x1="700" x2="700" y1="68" y2="72"/>
<line clip-path="url(#clipPath2)" fill="none" x1="700" x2="700" y1="554" y2="550"/>
<text x="694" font-size="10" y="63" clip-path="url(#clipPath2)" stroke="none" xml:space="preserve">5.0</text>
<text x="694" font-size="10" y="565" clip-path="url(#clipPath2)" stroke="none" xml:space="preserve">5.0</text>
<line clip-path="url(#clipPath2)" fill="none" x1="713" x2="713" y1="70" y2="72"/>
<line clip-path="url(#clipPath2)" fill="none" x1="713" x2="713" y1="552" y2="550"/>
<line clip-path="url(#clipPath2)" fill="none" x1="727" x2="727" y1="70" y2="72"/>
<line clip-path="url(#clipPath2)" fill="none" x1="727" x2="727" y1="552" y2="550"/>
<line clip-path="url(#clipPath2)" fill="none" x1="740" x2="740" y1="70" y2="72"/>
<line clip-path="url(#clipPath2)" fill="none" x1="740" x2="740" y1="552" y2="550"/>
<line clip-path="url(#clipPath2)" fill="none" x1="753" x2="753" y1="70" y2="72"/>
<line clip-path="url(#clipPath2)" fill="none" x1="753" x2="753" y1="552" y2="550"/>
<line clip-path="url(#clipPath2)" fill="none" x1="767" x2="767" y1="68" y2="72"/>
<line clip-path="url(#clipPath2)" fill="none" x1="767" x2="767" y1="554" y2="550"/>
<text x="761" font-size="10" y="63" clip-path="url(#clipPath2)" stroke="none" xml:space="preserve">5.5</text>
<text x="761" font-size="10" y="565" clip-path="url(#clipPath2)" stroke="none" xml:space="preserve">5.5</text>
<line clip-path="url(#clipPath2)" fill="none" x1="780" x2="780" y1="70" y2="72"/>
<line clip-path="url(#clipPath2)" fill="none" x1="780" x2="780" y1="552" y2="550"/>
<line clip-path="url(#clipPath2)" fill="none" x1="794" x2="794" y1="70" y2="72"/>
<line clip-path="url(#clipPath2)" fill="none" x1="794" x2="794" y1="552" y2="550"/>
<line clip-path="url(#clipPath2)" fill="none" x1="807" x2="807" y1="70" y2="72"/>
<line clip-path="url(#clipPath2)" fill="none" x1="807" x2="807" y1="552" y2="550"/>
<line clip-path="url(#clipPath2)" fill="none" x1="820" x2="820" y1="70" y2="72"/>
<line clip-path="url(#clipPath2)" fill="none" x1="820" x2="820" y1="552" y2="550"/>
<line clip-path="url(#clipPath2)" fill="none" x1="834" x2="834" y1="68" y2="72"/>
<line clip-path="url(#clipPath2)" fill="none" x1="834" x2="834" y1="554" y2="550"/>
<text x="828" font-size="10" y="63" clip-path="url(#clipPath2)" stroke="none" xml:space="preserve">6.0</text>
<text x="828" font-size="10" y="565" clip-path="url(#clipPath2)" stroke="none" xml:space="preserve">6.0</text>
<line clip-path="url(#clipPath2)" fill="none" x1="847" x2="847" y1="70" y2="72"/>
<line clip-path="url(#clipPath2)" fill="none" x1="847" x2="847" y1="552" y2="550"/>
<line clip-path="url(#clipPath2)" fill="none" x1="861" x2="861" y1="70" y2="72"/>
<line clip-path="url(#clipPath2)" fill="none" x1="861" x2="861" y1="552" y2="550"/>
<line clip-path="url(#clipPath2)" fill="none" x1="874" x2="874" y1="70" y2="72"/>
<line clip-path="url(#clipPath2)" fill="none" x1="874" x2="874" y1="552" y2="550"/>
<line clip-path="url(#clipPath2)" fill="none" x1="888" x2="888" y1="70" y2="72"/>
<line clip-path="url(#clipPath2)" fill="none" x1="888" x2="888" y1="552" y2="550"/>
<line clip-path="url(#clipPath2)" fill="none" x1="901" x2="901" y1="68" y2="72"/>
<line clip-path="url(#clipPath2)" fill="none" x1="901" x2="901" y1="554" y2="550"/>
<text x="895" font-size="10" y="63" clip-path="url(#clipPath2)" stroke="none" xml:space="preserve">6.5</text>
<text x="895" font-size="10" y="565" clip-path="url(#clipPath2)" stroke="none" xml:space="preserve">6.5</text>
<line clip-path="url(#clipPath2)" fill="none" x1="914" x2="914" y1="70" y2="72"/>
<line clip-path="url(#clipPath2)" fill="none" x1="914" x2="914" y1="552" y2="550"/>
<line clip-path="url(#clipPath2)" fill="none" x1="928" x2="928" y1="70" y2="72"/>
<line clip-path="url(#clipPath2)" fill="none" x1="928" x2="928" y1="552" y2="550"/>
<line clip-path="url(#clipPath2)" fill="none" x1="941" x2="941" y1="70" y2="72"/>
<line clip-path="url(#clipPath2)" fill="none" x1="941" x2="941" y1="552" y2="550"/>
<line clip-path="url(#clipPath2)" fill="none" x1="955" x2="955" y1="70" y2="72"/>
<line clip-path="url(#clipPath2)" fill="none" x1="955" x2="955" y1="552" y2="550"/>
<line clip-path="url(#clipPath2)" fill="none" x1="968" x2="968" y1="68" y2="72"/>
<line clip-path="url(#clipPath2)" fill="none" x1="968" x2="968" y1="554" y2="550"/>
<text x="962" font-size="10" y="63" clip-path="url(#clipPath2)" stroke="none" xml:space="preserve">7.0</text>
<text x="962" font-size="10" y="565" clip-path="url(#clipPath2)" stroke="none" xml:space="preserve">7.0</text>
<line clip-path="url(#clipPath2)" fill="none" x1="982" x2="982" y1="70" y2="72"/>
<line clip-path="url(#clipPath2)" fill="none" x1="982" x2="982" y1="552" y2="550"/>
<line clip-path="url(#clipPath2)" fill="none" x1="995" x2="995" y1="70" y2="72"/>
<line clip-path="url(#clipPath2)" fill="none" x1="995" x2="995" y1="552" y2="550"/>
<line clip-path="url(#clipPath2)" fill="none" x1="1008" x2="1008" y1="70" y2="72"/>
<line clip-path="url(#clipPath2)" fill="none" x1="1008" x2="1008" y1="552" y2="550"/>
<line clip-path="url(#clipPath2)" fill="none" x1="1022" x2="1022" y1="70" y2="72"/>
<line clip-path="url(#clipPath2)" fill="none" x1="1022" x2="1022" y1="552" y2="550"/>
<line clip-path="url(#clipPath2)" fill="none" x1="1035" x2="1035" y1="68" y2="72"/>
<line clip-path="url(#clipPath2)" fill="none" x1="1035" x2="1035" y1="554" y2="550"/>
<text x="1029" font-size="10" y="63" clip-path="url(#clipPath2)" stroke="none" xml:space="preserve">7.5</text>
<text x="1029" font-size="10" y="565" clip-path="url(#clipPath2)" stroke="none" xml:space="preserve">7.5</text>
<line clip-path="url(#clipPath2)" fill="none" x1="1049" x2="1049" y1="70" y2="72"/>
<line clip-path="url(#clipPath2)" fill="none" x1="1049" x2="1049" y1="552" y2="550"/>
<line clip-path="url(#clipPath2)" fill="none" x1="1062" x2="1062" y1="70" y2="72"/>
<line clip-path="url(#clipPath2)" fill="none" x1="1062" x2="1062" y1="552" y2="550"/>
<line clip-path="url(#clipPath2)" fill="none" x1="1076" x2="1076" y1="70" y2="72"/>
<line clip-path="url(#clipPath2)" fill="none" x1="1076" x2="1076" y1="552" y2="550"/>
<line clip-path="url(#clipPath2)" fill="none" x1="1089" x2="1089" y1="70" y2="72"/>
<line clip-path="url(#clipPath2)" fill="none" x1="1089" x2="1089" y1="552" y2="550"/>
<line clip-path="url(#clipPath2)" fill="none" x1="1102" x2="1102" y1="68" y2="72"/>
<line clip-path="url(#clipPath2)" fill="none" x1="1102" x2="1102" y1="554" y2="550"/>
<text x="1096" font-size="10" y="63" clip-path="url(#clipPath2)" stroke="none" xml:space="preserve">8.0</text>
<text x="1096" font-size="10" y="565" clip-path="url(#clipPath2)" stroke="none" xml:space="preserve">8.0</text>
<line clip-path="url(#clipPath2)" fill="none" x1="1116" x2="1116" y1="70" y2="72"/>
<line clip-path="url(#clipPath2)" fill="none" x1="1116" x2="1116" y1="552" y2="550"/>
<line clip-path="url(#clipPath2)" fill="none" x1="1129" x2="1129" y1="70" y2="72"/>
<line clip-path="url(#clipPath2)" fill="none" x1="1129" x2="1129" y1="552" y2="550"/>
<line clip-path="url(#clipPath2)" fill="none" x1="1143" x2="1143" y1="70" y2="72"/>
<line clip-path="url(#clipPath2)" fill="none" x1="1143" x2="1143" y1="552" y2="550"/>
<line clip-path="url(#clipPath2)" fill="none" x1="1156" x2="1156" y1="70" y2="72"/>
<line clip-path="url(#clipPath2)" fill="none" x1="1156" x2="1156" y1="552" y2="550"/>
<line clip-path="url(#clipPath2)" fill="none" x1="1169" x2="1169" y1="68" y2="72"/>
<line clip-path="url(#clipPath2)" fill="none" x1="1169" x2="1169" y1="554" y2="550"/>
<text x="1163" font-size="10" y="63" clip-path="url(#clipPath2)" stroke="none" xml:space="preserve">8.5</text>
<text x="1163" font-size="10" y="565" clip-path="url(#clipPath2)" stroke="none" xml:space="preserve">8.5</text>
<line clip-path="url(#clipPath2)" fill="none" x1="1183" x2="1183" y1="70" y2="72"/>
<line clip-path="url(#clipPath2)" fill="none" x1="1183" x2="1183" y1="552" y2="550"/>
<line clip-path="url(#clipPath2)" fill="none" x1="1196" x2="1196" y1="70" y2="72"/>
<line clip-path="url(#clipPath2)" fill="none" x1="1196" x2="1196" y1="552" y2="550"/>
<line clip-path="url(#clipPath2)" fill="none" x1="1210" x2="1210" y1="70" y2="72"/>
<line clip-path="url(#clipPath2)" fill="none" x1="1210" x2="1210" y1="552" y2="550"/>
<line clip-path="url(#clipPath2)" fill="none" x1="1223" x2="1223" y1="70" y2="72"/>
<line clip-path="url(#clipPath2)" fill="none" x1="1223" x2="1223" y1="552" y2="550"/>
<line clip-path="url(#clipPath2)" fill="none" x1="1237" x2="1237" y1="68" y2="72"/>
<line clip-path="url(#clipPath2)" fill="none" x1="1237" x2="1237" y1="554" y2="550"/>
<text x="1231" font-size="10" y="63" clip-path="url(#clipPath2)" stroke="none" xml:space="preserve">9.0</text>
<text x="1231" font-size="10" y="565" clip-path="url(#clipPath2)" stroke="none" xml:space="preserve">9.0</text>
<line clip-path="url(#clipPath2)" fill="none" x1="1250" x2="1250" y1="70" y2="72"/>
<line clip-path="url(#clipPath2)" fill="none" x1="1250" x2="1250" y1="552" y2="550"/>
<line clip-path="url(#clipPath2)" fill="none" x1="1263" x2="1263" y1="70" y2="72"/>
<line clip-path="url(#clipPath2)" fill="none" x1="1263" x2="1263" y1="552" y2="550"/>
<line clip-path="url(#clipPath2)" fill="none" x1="1277" x2="1277" y1="70" y2="72"/>
<line clip-path="url(#clipPath2)" fill="none" x1="1277" x2="1277" y1="552" y2="550"/>
<line clip-path="url(#clipPath2)" fill="none" x1="1290" x2="1290" y1="70" y2="72"/>
<line clip-path="url(#clipPath2)" fill="none" x1="1290" x2="1290" y1="552" y2="550"/>
<line clip-path="url(#clipPath2)" fill="none" x1="1304" x2="1304" y1="68" y2="72"/>
<line clip-path="url(#clipPath2)" fill="none" x1="1304" x2="1304" y1="554" y2="550"/>
<text x="1298" font-size="10" y="63" clip-path="url(#clipPath2)" stroke="none" xml:space="preserve">9.5</text>
<text x="1298" font-size="10" y="565" clip-path="url(#clipPath2)" stroke="none" xml:space="preserve">9.5</text>
<line clip-path="url(#clipPath2)" fill="none" x1="1317" x2="1317" y1="70" y2="72"/>
<line clip-path="url(#clipPath2)" fill="none" x1="1317" x2="1317" y1="552" y2="550"/>
<line clip-path="url(#clipPath2)" fill="none" x1="1331" x2="1331" y1="70" y2="72"/>
<line clip-path="url(#clipPath2)" fill="none" x1="1331" x2="1331" y1="552" y2="550"/>
<line clip-path="url(#clipPath2)" fill="none" x1="1344" x2="1344" y1="70" y2="72"/>
<line clip-path="url(#clipPath2)" fill="none" x1="1344" x2="1344" y1="552" y2="550"/>
<line clip-path="url(#clipPath2)" fill="none" x1="1357" x2="1357" y1="70" y2="72"/>
<line clip-path="url(#clipPath2)" fill="none" x1="1357" x2="1357" y1="552" y2="550"/>
<line clip-path="url(#clipPath2)" fill="none" x1="1371" x2="1371" y1="68" y2="72"/>
<line clip-path="url(#clipPath2)" fill="none" x1="1371" x2="1371" y1="554" y2="550"/>
<text x="1362" font-size="10" y="63" clip-path="url(#clipPath2)" stroke="none" xml:space="preserve">10.0</text>
<text x="1362" font-size="10" y="565" clip-path="url(#clipPath2)" stroke="none" xml:space="preserve">10.0</text>
<line clip-path="url(#clipPath2)" fill="none" x1="1384" x2="1384" y1="70" y2="72"/>
<line clip-path="url(#clipPath2)" fill="none" x1="1384" x2="1384" y1="552" y2="550"/>
<line clip-path="url(#clipPath2)" fill="none" x1="1398" x2="1398" y1="70" y2="72"/>
<line clip-path="url(#clipPath2)" fill="none" x1="1398" x2="1398" y1="552" y2="550"/>
<line clip-path="url(#clipPath2)" fill="none" x1="1411" x2="1411" y1="70" y2="72"/>
<line clip-path="url(#clipPath2)" fill="none" x1="1411" x2="1411" y1="552" y2="550"/>
<line clip-path="url(#clipPath2)" fill="none" x1="1425" x2="1425" y1="70" y2="72"/>
<line clip-path="url(#clipPath2)" fill="none" x1="1425" x2="1425" y1="552" y2="550"/>
<line clip-path="url(#clipPath2)" fill="none" x1="1438" x2="1438" y1="68" y2="72"/>
<line clip-path="url(#clipPath2)" fill="none" x1="1438" x2="1438" y1="554" y2="550"/>
<text x="1429" font-size="10" y="63" clip-path="url(#clipPath2)" stroke="none" xml:space="preserve">10.5</text>
<text x="1429" font-size="10" y="565" clip-path="url(#clipPath2)" stroke="none" xml:space="preserve">10.5</text>
<line clip-path="url(#clipPath2)" fill="none" x1="1451" x2="1451" y1="70" y2="72"/>
<line clip-path="url(#clipPath2)" fill="none" x1="1451" x2="1451" y1="552" y2="550"/>
<line clip-path="url(#clipPath2)" fill="none" x1="1465" x2="1465" y1="70" y2="72"/>
<line clip-path="url(#clipPath2)" fill="none" x1="1465" x2="1465" y1="552" y2="550"/>
<line clip-path="url(#clipPath2)" fill="none" x1="1478" x2="1478" y1="70" y2="72"/>
<line clip-path="url(#clipPath2)" fill="none" x1="1478" x2="1478" y1="552" y2="550"/>
<line clip-path="url(#clipPath2)" fill="none" x1="1492" x2="1492" y1="70" y2="72"/>
<line clip-path="url(#clipPath2)" fill="none" x1="1492" x2="1492" y1="552" y2="550"/>
<line clip-path="url(#clipPath2)" fill="none" x1="1505" x2="1505" y1="68" y2="72"/>
<line clip-path="url(#clipPath2)" fill="none" x1="1505" x2="1505" y1="554" y2="550"/>
<text x="1496" font-size="10" y="63" clip-path="url(#clipPath2)" stroke="none" xml:space="preserve">11.0</text>
<text x="1496" font-size="10" y="565" clip-path="url(#clipPath2)" stroke="none" xml:space="preserve">11.0</text>
<line clip-path="url(#clipPath2)" fill="none" x1="1518" x2="1518" y1="70" y2="72"/>
<line clip-path="url(#clipPath2)" fill="none" x1="1518" x2="1518" y1="552" y2="550"/>
<line clip-path="url(#clipPath2)" fill="none" x1="27" x2="27" y1="74" y2="548"/>
<line clip-path="url(#clipPath2)" fill="none" x1="1526" x2="1526" y1="74" y2="548"/>
<line clip-path="url(#clipPath2)" fill="none" x1="23" x2="27" y1="548" y2="548"/>
<line clip-path="url(#clipPath2)" fill="none" x1="1530" x2="1526" y1="548" y2="548"/>
<text x="17" font-size="10" y="551" clip-path="url(#clipPath2)" stroke="none" xml:space="preserve">0</text>
<text x="1533" font-size="10" y="551" clip-path="url(#clipPath2)" stroke="none" xml:space="preserve">0</text>
<line clip-path="url(#clipPath2)" fill="none" x1="25" x2="27" y1="536" y2="536"/>
<line clip-path="url(#clipPath2)" fill="none" x1="1528" x2="1526" y1="536" y2="536"/>
<line clip-path="url(#clipPath2)" fill="none" x1="25" x2="27" y1="524" y2="524"/>
<line clip-path="url(#clipPath2)" fill="none" x1="1528" x2="1526" y1="524" y2="524"/>
<line clip-path="url(#clipPath2)" fill="none" x1="25" x2="27" y1="512" y2="512"/>
<line clip-path="url(#clipPath2)" fill="none" x1="1528" x2="1526" y1="512" y2="512"/>
<line clip-path="url(#clipPath2)" fill="none" x1="25" x2="27" y1="500" y2="500"/>
<line clip-path="url(#clipPath2)" fill="none" x1="1528" x2="1526" y1="500" y2="500"/>
<line clip-path="url(#clipPath2)" fill="none" x1="23" x2="27" y1="488" y2="488"/>
<line clip-path="url(#clipPath2)" fill="none" x1="1530" x2="1526" y1="488" y2="488"/>
<text x="7" font-size="10" y="491" clip-path="url(#clipPath2)" stroke="none" xml:space="preserve">0.5</text>
<text x="1533" font-size="10" y="491" clip-path="url(#clipPath2)" stroke="none" xml:space="preserve">0.5</text>
<line clip-path="url(#clipPath2)" fill="none" x1="25" x2="27" y1="476" y2="476"/>
<line clip-path="url(#clipPath2)" fill="none" x1="1528" x2="1526" y1="476" y2="476"/>
<line clip-path="url(#clipPath2)" fill="none" x1="25" x2="27" y1="465" y2="465"/>
<line clip-path="url(#clipPath2)" fill="none" x1="1528" x2="1526" y1="465" y2="465"/>
<line clip-path="url(#clipPath2)" fill="none" x1="25" x2="27" y1="453" y2="453"/>
<line clip-path="url(#clipPath2)" fill="none" x1="1528" x2="1526" y1="453" y2="453"/>
<line clip-path="url(#clipPath2)" fill="none" x1="25" x2="27" y1="441" y2="441"/>
<line clip-path="url(#clipPath2)" fill="none" x1="1528" x2="1526" y1="441" y2="441"/>
<line clip-path="url(#clipPath2)" fill="none" x1="23" x2="27" y1="429" y2="429"/>
<line clip-path="url(#clipPath2)" fill="none" x1="1530" x2="1526" y1="429" y2="429"/>
<text x="7" font-size="10" y="432" clip-path="url(#clipPath2)" stroke="none" xml:space="preserve">1.0</text>
<text x="1533" font-size="10" y="432" clip-path="url(#clipPath2)" stroke="none" xml:space="preserve">1.0</text>
<line clip-path="url(#clipPath2)" fill="none" x1="25" x2="27" y1="417" y2="417"/>
<line clip-path="url(#clipPath2)" fill="none" x1="1528" x2="1526" y1="417" y2="417"/>
<line clip-path="url(#clipPath2)" fill="none" x1="25" x2="27" y1="405" y2="405"/>
<line clip-path="url(#clipPath2)" fill="none" x1="1528" x2="1526" y1="405" y2="405"/>
<line clip-path="url(#clipPath2)" fill="none" x1="25" x2="27" y1="393" y2="393"/>
<line clip-path="url(#clipPath2)" fill="none" x1="1528" x2="1526" y1="393" y2="393"/>
<line clip-path="url(#clipPath2)" fill="none" x1="25" x2="27" y1="382" y2="382"/>
<line clip-path="url(#clipPath2)" fill="none" x1="1528" x2="1526" y1="382" y2="382"/>
<line clip-path="url(#clipPath2)" fill="none" x1="23" x2="27" y1="370" y2="370"/>
<line clip-path="url(#clipPath2)" fill="none" x1="1530" x2="1526" y1="370" y2="370"/>
<text x="7" font-size="10" y="373" clip-path="url(#clipPath2)" stroke="none" xml:space="preserve">1.5</text>
<text x="1533" font-size="10" y="373" clip-path="url(#clipPath2)" stroke="none" xml:space="preserve">1.5</text>
<line clip-path="url(#clipPath2)" fill="none" x1="25" x2="27" y1="358" y2="358"/>
<line clip-path="url(#clipPath2)" fill="none" x1="1528" x2="1526" y1="358" y2="358"/>
<line clip-path="url(#clipPath2)" fill="none" x1="25" x2="27" y1="346" y2="346"/>
<line clip-path="url(#clipPath2)" fill="none" x1="1528" x2="1526" y1="346" y2="346"/>
<line clip-path="url(#clipPath2)" fill="none" x1="25" x2="27" y1="334" y2="334"/>
<line clip-path="url(#clipPath2)" fill="none" x1="1528" x2="1526" y1="334" y2="334"/>
<line clip-path="url(#clipPath2)" fill="none" x1="25" x2="27" y1="322" y2="322"/>
<line clip-path="url(#clipPath2)" fill="none" x1="1528" x2="1526" y1="322" y2="322"/>
<line clip-path="url(#clipPath2)" fill="none" x1="23" x2="27" y1="311" y2="311"/>
<line clip-path="url(#clipPath2)" fill="none" x1="1530" x2="1526" y1="311" y2="311"/>
<text x="7" font-size="10" y="314" clip-path="url(#clipPath2)" stroke="none" xml:space="preserve">2.0</text>
<text x="1533" font-size="10" y="314" clip-path="url(#clipPath2)" stroke="none" xml:space="preserve">2.0</text>
<line clip-path="url(#clipPath2)" fill="none" x1="25" x2="27" y1="299" y2="299"/>
<line clip-path="url(#clipPath2)" fill="none" x1="1528" x2="1526" y1="299" y2="299"/>
<line clip-path="url(#clipPath2)" fill="none" x1="25" x2="27" y1="287" y2="287"/>
<line clip-path="url(#clipPath2)" fill="none" x1="1528" x2="1526" y1="287" y2="287"/>
<line clip-path="url(#clipPath2)" fill="none" x1="25" x2="27" y1="275" y2="275"/>
<line clip-path="url(#clipPath2)" fill="none" x1="1528" x2="1526" y1="275" y2="275"/>
<line clip-path="url(#clipPath2)" fill="none" x1="25" x2="27" y1="263" y2="263"/>
<line clip-path="url(#clipPath2)" fill="none" x1="1528" x2="1526" y1="263" y2="263"/>
<line clip-path="url(#clipPath2)" fill="none" x1="23" x2="27" y1="251" y2="251"/>
<line clip-path="url(#clipPath2)" fill="none" x1="1530" x2="1526" y1="251" y2="251"/>
<text x="7" font-size="10" y="254" clip-path="url(#clipPath2)" stroke="none" xml:space="preserve">2.5</text>
<text x="1533" font-size="10" y="254" clip-path="url(#clipPath2)" stroke="none" xml:space="preserve">2.5</text>
<line clip-path="url(#clipPath2)" fill="none" x1="25" x2="27" y1="239" y2="239"/>
<line clip-path="url(#clipPath2)" fill="none" x1="1528" x2="1526" y1="239" y2="239"/>
<line clip-path="url(#clipPath2)" fill="none" x1="25" x2="27" y1="228" y2="228"/>
<line clip-path="url(#clipPath2)" fill="none" x1="1528" x2="1526" y1="228" y2="228"/>
<line clip-path="url(#clipPath2)" fill="none" x1="25" x2="27" y1="216" y2="216"/>
<line clip-path="url(#clipPath2)" fill="none" x1="1528" x2="1526" y1="216" y2="216"/>
<line clip-path="url(#clipPath2)" fill="none" x1="25" x2="27" y1="204" y2="204"/>
<line clip-path="url(#clipPath2)" fill="none" x1="1528" x2="1526" y1="204" y2="204"/>
<line clip-path="url(#clipPath2)" fill="none" x1="23" x2="27" y1="192" y2="192"/>
<line clip-path="url(#clipPath2)" fill="none" x1="1530" x2="1526" y1="192" y2="192"/>
<text x="7" font-size="10" y="195" clip-path="url(#clipPath2)" stroke="none" xml:space="preserve">3.0</text>
<text x="1533" font-size="10" y="195" clip-path="url(#clipPath2)" stroke="none" xml:space="preserve">3.0</text>
<line clip-path="url(#clipPath2)" fill="none" x1="25" x2="27" y1="180" y2="180"/>
<line clip-path="url(#clipPath2)" fill="none" x1="1528" x2="1526" y1="180" y2="180"/>
<line clip-path="url(#clipPath2)" fill="none" x1="25" x2="27" y1="168" y2="168"/>
<line clip-path="url(#clipPath2)" fill="none" x1="1528" x2="1526" y1="168" y2="168"/>
<line clip-path="url(#clipPath2)" fill="none" x1="25" x2="27" y1="156" y2="156"/>
<line clip-path="url(#clipPath2)" fill="none" x1="1528" x2="1526" y1="156" y2="156"/>
<line clip-path="url(#clipPath2)" fill="none" x1="25" x2="27" y1="145" y2="145"/>
<line clip-path="url(#clipPath2)" fill="none" x1="1528" x2="1526" y1="145" y2="145"/>
<line clip-path="url(#clipPath2)" fill="none" x1="23" x2="27" y1="133" y2="133"/>
<line clip-path="url(#clipPath2)" fill="none" x1="1530" x2="1526" y1="133" y2="133"/>
<text x="7" font-size="10" y="136" clip-path="url(#clipPath2)" stroke="none" xml:space="preserve">3.5</text>
<text x="1533" font-size="10" y="136" clip-path="url(#clipPath2)" stroke="none" xml:space="preserve">3.5</text>
<line clip-path="url(#clipPath2)" fill="none" x1="25" x2="27" y1="121" y2="121"/>
<line clip-path="url(#clipPath2)" fill="none" x1="1528" x2="1526" y1="121" y2="121"/>
<line clip-path="url(#clipPath2)" fill="none" x1="25" x2="27" y1="109" y2="109"/>
<line clip-path="url(#clipPath2)" fill="none" x1="1528" x2="1526" y1="109" y2="109"/>
<line clip-path="url(#clipPath2)" fill="none" x1="25" x2="27" y1="97" y2="97"/>
<line clip-path="url(#clipPath2)" fill="none" x1="1528" x2="1526" y1="97" y2="97"/>
<line clip-path="url(#clipPath2)" fill="none" x1="25" x2="27" y1="85" y2="85"/>
<line clip-path="url(#clipPath2)" fill="none" x1="1528" x2="1526" y1="85" y2="85"/>
</g>
</g>
</svg>
